<?xml version="1.0" encoding="UTF-8"?>
<svg id="Layer_1" xmlns="http://www.w3.org/2000/svg" version="1.1" viewBox="0 0 890.67 568">
  <!-- Generator: Adobe Illustrator 30.0.0, SVG Export Plug-In . SVG Version: 2.1.1 Build 72)  -->
  <defs>
    <style>
      .st0 {
        fill: #c21f4a;
      }
    </style>
  </defs>
  <path class="st0" d="M320.97,236.13c-1.65-4.77-7.59-8.17-15.66-8.17-6.91,0-12.74,2.43-17.5,7.39-4.67,4.86-7,10.89-7,18.18s2.33,13.32,7,18.28c4.76,4.86,10.6,7.29,17.5,7.29,8.07,0,14-3.4,15.66-8.17v7.1h11.67v-49h-11.67v7.1ZM317.47,264.23c-2.82,2.82-6.42,4.28-10.6,4.28s-7.59-1.46-10.41-4.28c-2.72-2.82-4.08-6.42-4.08-10.7s1.36-7.87,4.08-10.7c2.82-2.82,6.22-4.28,10.41-4.28s7.78,1.46,10.6,4.28c2.92,2.82,4.37,6.42,4.37,10.7s-1.46,7.87-4.37,10.7Z"/>
  <path class="st0" d="M354.3,249.84c0-6.71,4.76-11.38,11.38-11.38s10.4,4.18,10.4,10.89v46.1h11.67v-47.75c0-12.16-6.91-19.65-18.57-19.65-7,0-12.54,3.21-14.88,7.97v-7h-11.57v49h11.57v-28.2Z"/>
  <path class="st0" d="M422.16,279.5c7.49,0,13.81-2.53,18.96-7.49,5.16-4.96,7.78-11.18,7.78-18.47s-2.62-13.52-7.78-18.47c-5.15-4.96-11.47-7.49-18.96-7.49s-13.81,2.53-18.96,7.49c-5.15,4.96-7.78,11.18-7.78,18.47s2.63,13.52,7.78,18.47c5.15,4.96,11.47,7.49,18.96,7.49ZM411.27,242.64c2.92-3.02,6.51-4.47,10.89-4.47s7.88,1.46,10.79,4.47c2.92,2.92,4.37,6.51,4.37,10.89s-1.46,7.97-4.37,10.99c-2.92,2.92-6.52,4.38-10.79,4.38s-7.97-1.46-10.89-4.38c-2.82-3.01-4.28-6.61-4.28-10.99s1.46-7.97,4.28-10.89Z"/>
  <path class="st0" d="M528.61,278.04v-30.34c0-12.16-6.22-19.65-17.02-19.65-7.88,0-13.22,2.82-16.04,8.56-2.43-5.74-7-8.56-13.71-8.56-6.22,0-11.18,3.21-13.23,7.97v-7h-11.57v66.42h11.57v-45.62c0-6.61,4.08-11.38,9.53-11.38s8.75,4.18,8.75,10.89v28.68h11.57v-28.2c0-6.71,3.99-11.38,9.72-11.38s8.75,4.18,8.75,10.89v28.68h11.67Z"/>
  <path class="st0" d="M560.77,279.11c8.07,0,14-3.4,15.66-8.17v7.1h11.67v-49h-11.67v7.1c-1.65-4.77-7.59-8.17-15.66-8.17-6.91,0-12.74,2.43-17.5,7.39-4.67,4.86-7,10.89-7,18.18s2.33,13.32,7,18.28c4.76,4.86,10.6,7.29,17.5,7.29ZM551.92,242.84c2.82-2.82,6.22-4.28,10.41-4.28s7.78,1.46,10.6,4.28c2.92,2.82,4.37,6.42,4.37,10.7s-1.46,7.87-4.37,10.7c-2.82,2.82-6.42,4.28-10.6,4.28s-7.59-1.46-10.41-4.28c-2.72-2.82-4.08-6.42-4.08-10.7s1.36-7.87,4.08-10.7Z"/>
  <rect class="st0" x="598.19" y="210.26" width="11.67" height="85.19"/>
  <path class="st0" d="M306.67,306.3c-6.71,0-12.06,3.11-14.29,7.78v-25.57h-11.57v67.77h11.57v-28.2c0-6.71,4.47-11.38,10.79-11.38s9.82,4.18,9.82,10.89v28.68h11.57v-30.34c0-12.16-6.61-19.65-17.89-19.65Z"/>
  <path class="st0" d="M428.79,305.81c-.34,0-.65.08-71.19.09-7.05.22-13.06,2.67-17.98,7.4-5.15,4.96-7.78,11.18-7.78,18.47s2.63,13.52,7.78,18.47c4.92,4.73,10.93,7.18,17.98,7.4,70.54.01,70.85.09,71.19.09,7.49,0,13.81-2.53,18.96-7.49,5.16-4.96,7.78-11.18,7.78-18.47s-2.62-13.52-7.78-18.47c-5.15-4.96-11.47-7.49-18.96-7.49ZM439.59,342.76c-2.92,2.92-6.52,4.38-10.79,4.38-.34,0-.65-.07-71.19-.09-3.92-.21-7.22-1.6-9.91-4.29-2.82-3.01-4.28-6.61-4.28-10.99s1.46-7.97,4.28-10.89c2.69-2.78,5.99-4.18,9.91-4.39,70.54-.02,70.84-.09,71.19-.09,4.28,0,7.88,1.46,10.79,4.47,2.92,2.92,4.37,6.51,4.37,10.89s-1.46,7.97-4.37,10.99Z"/>
  <path class="st0" d="M496.13,335.76c0,7.39-4.18,11.09-10.7,11.09s-10.7-3.6-10.7-10.99v-28.58h-11.77v29.56c0,6.71,2.14,11.77,6.32,15.36,4.18,3.6,9.53,5.35,16.04,5.35s11.86-1.75,16.14-5.35c4.28-3.6,6.42-8.85,6.42-15.66v-29.26h-11.76v28.49Z"/>
  <path class="st0" d="M548.24,331.68c-1.85-1.27-3.6-2.34-5.06-3.02-1.46-.68-3.6-1.65-6.42-2.72-1.46-.59-3.11-1.17-4.28-1.56-1.07-.49-1.27-.68-2.04-1.07-1.26-.78-1.94-1.75-1.94-3.11,0-2.82,2.33-4.18,7.1-4.18s8.85,1.27,12.74,3.7v-10.6c-3.5-2.24-7.88-3.31-13.22-3.31-5.06,0-9.24,1.27-12.64,3.79-3.3,2.53-4.96,6.03-4.96,10.41,0,6.13,3.5,10.8,10.41,13.81,2.24.88,6.32,2.53,8.26,3.4,1.07.39,2.04.88,3.11,1.46,2.24,1.17,3.11,2.43,3.11,3.99,0,3.02-3.11,4.67-8.26,4.67-7.29,0-13.42-2.14-18.18-6.51v11.47c5.15,3.5,11.09,5.25,17.99,5.25s11.67-1.46,14.88-4.38c3.21-3.01,4.86-6.51,4.86-10.7,0-4.76-1.56-8.17-5.45-10.79Z"/>
  <path class="st0" d="M585.94,306.1c-7.39,0-13.52,2.34-18.28,7.1-4.76,4.67-7.1,10.89-7.1,18.57v.49c0,7.68,2.33,13.91,7.1,18.57,4.76,4.57,11.09,6.9,18.77,6.9s13.32-1.66,18.09-4.96v-10.89c-4.08,3.8-9.92,5.64-17.6,5.64-8.65,0-14.39-4.96-14.78-12.74h37.53c.1-1.27.2-2.73.2-4.18,0-6.9-2.24-12.74-6.71-17.41-4.37-4.76-10.11-7.1-17.21-7.1ZM572.42,326.52c.2-2.92,1.56-5.35,4.18-7.39,2.62-2.04,5.74-3.11,9.33-3.11,3.4,0,6.22,1.07,8.55,3.11,2.34,2.04,3.5,4.57,3.5,7.39h-25.57Z"/>
</svg>